<?xml version="1.0" encoding="utf-8"?>
<!-- Generator: Adobe Illustrator 27.7.0, SVG Export Plug-In . SVG Version: 6.00 Build 0)  -->
<svg version="1.1" id="Capa_1" xmlns="http://www.w3.org/2000/svg" xmlns:xlink="http://www.w3.org/1999/xlink" x="0px" y="0px"
	 viewBox="0 0 800 800" style="enable-background:new 0 0 800 800;" xml:space="preserve">
<style type="text/css">
	.st0{fill:#6C906C;}
</style>
<g>
	<path class="st0" d="M702.3,76.4H97.7C43.8,76.4,0,120.2,0,174.1v476.8c0,53.9,43.8,97.7,97.7,97.7h604.6
		c53.9,0,97.7-43.8,97.7-97.7V174.1C800,120.2,756.2,76.4,702.3,76.4z M654.5,140.2L400,369.2l-254.5-229H654.5z M702.3,684.9H97.7
		c-18.7,0-34-15.2-34-34v-475l316.6,268.6c0.4,0.3,0.9,0.4,1.3,0.7c0.5,0.3,0.9,0.5,1.4,0.7c2.5,1.3,5,2.3,7.6,3
		c0.3,0.1,0.5,0.1,0.8,0.2c2.8,0.7,5.7,1.1,8.6,1.1c0,0,0,0,0,0c0,0,0,0,0,0c2.9,0,5.7-0.4,8.6-1.1c0.3-0.1,0.5-0.1,0.8-0.2
		c2.6-0.7,5.1-1.7,7.6-3c0.5-0.2,0.9-0.5,1.4-0.7c0.4-0.2,0.9-0.4,1.3-0.7l316.6-268.6v475C736.3,669.6,721,684.9,702.3,684.9z"/>
</g>
</svg>
