<?xml version="1.0" encoding="utf-8"?>
<!-- Generator: Adobe Illustrator 27.7.0, SVG Export Plug-In . SVG Version: 6.00 Build 0)  -->
<svg version="1.1" id="Layer_1" xmlns="http://www.w3.org/2000/svg" xmlns:xlink="http://www.w3.org/1999/xlink" x="0px" y="0px"
	 viewBox="0 0 83.5 70.2" style="enable-background:new 0 0 83.5 70.2;" xml:space="preserve">
<style type="text/css">
	.st0{fill:#FFFFFF;}
	.st1{fill:#EA983E;}
	.st2{fill:#99C555;}
	.st3{fill:#AF3034;}
	.st4{fill:#FDDF4F;}
	.st5{fill:#3A2729;}
</style>
<g>
	<path class="st5" d="M82.3,6.6h-81c-0.6,0-1.2-0.5-1.2-1.2v-4c0-0.6,0.5-1.2,1.2-1.2h81c0.6,0,1.2,0.5,1.2,1.2v4
		C83.4,6.1,82.9,6.6,82.3,6.6z"/>
	<path class="st5" d="M82.3,27.7h-81c-0.6,0-1.2-0.5-1.2-1.2v-4c0-0.6,0.5-1.2,1.2-1.2h81c0.6,0,1.2,0.5,1.2,1.2v4
		C83.4,27.2,82.9,27.7,82.3,27.7z"/>
	<path class="st5" d="M82.3,48.8h-81c-0.6,0-1.2-0.5-1.2-1.2v-4c0-0.6,0.5-1.2,1.2-1.2h81c0.6,0,1.2,0.5,1.2,1.2v4
		C83.4,48.3,82.9,48.8,82.3,48.8z"/>
	<path class="st5" d="M82.3,69.9h-81c-0.6,0-1.2-0.5-1.2-1.2v-4c0-0.6,0.5-1.2,1.2-1.2h81c0.6,0,1.2,0.5,1.2,1.2v4
		C83.4,69.4,82.9,69.9,82.3,69.9z"/>
</g>
</svg>
