<?xml version="1.0" encoding="utf-8"?>
<!-- Generator: Adobe Illustrator 27.7.0, SVG Export Plug-In . SVG Version: 6.00 Build 0)  -->
<svg version="1.1" id="Layer_1" xmlns="http://www.w3.org/2000/svg" xmlns:xlink="http://www.w3.org/1999/xlink" x="0px" y="0px"
	 viewBox="0 0 800 800" style="enable-background:new 0 0 800 800;" xml:space="preserve">
<style type="text/css">
	.st0{fill:#FFFCF6;}
</style>
<g>
	<path class="st0" d="M579.2,0H220.8C99,0,0,99,0,220.8v358.5C0,701,99,800,220.8,800h358.5C701,800,800,701,800,579.2V220.8
		C800,99,701,0,579.2,0z M729,579.2c0,82.6-67.2,149.8-149.8,149.8H220.8C138.2,729,71,661.8,71,579.2V220.8
		C71,138.2,138.2,71,220.8,71h358.5C661.8,71,729,138.2,729,220.8V579.2L729,579.2z"/>
	<path class="st0" d="M400,193.9c-113.7,0-206.1,92.5-206.1,206.1c0,113.7,92.5,206.1,206.1,206.1S606.1,513.7,606.1,400
		S513.7,193.9,400,193.9z M400,535.2c-74.5,0-135.2-60.6-135.2-135.1S325.4,264.9,400,264.9S535.2,325.5,535.2,400
		S474.5,535.2,400,535.2z"/>
	<path class="st0" d="M614.8,133.7c-13.7,0-27.1,5.5-36.8,15.2s-15.3,23.1-15.3,36.8s5.6,27.1,15.3,36.8s23.1,15.2,36.8,15.2
		s27.1-5.6,36.8-15.2c9.7-9.7,15.2-23.1,15.2-36.8s-5.5-27.2-15.2-36.8C641.9,139.2,628.5,133.7,614.8,133.7z"/>
</g>
</svg>
