<?xml version="1.0" encoding="utf-8"?>
<!-- Generator: Adobe Illustrator 27.7.0, SVG Export Plug-In . SVG Version: 6.00 Build 0)  -->
<svg version="1.1" id="Layer_1" xmlns="http://www.w3.org/2000/svg" xmlns:xlink="http://www.w3.org/1999/xlink" x="0px" y="0px"
	 viewBox="0 0 28 38" style="enable-background:new 0 0 28 38;" xml:space="preserve">
<style type="text/css">
	.st0{fill:#6C906C;}
</style>
<path class="st0" d="M24.4,4.6c-2.3-2.7-5.6-4.1-10-4.1c-4.6,0-8.2,1.4-10.5,4.2c-4.1,4.9-3,12.2-2.7,13.6c0.9,5.2,7,13.5,12.2,18.7
	c0,0,0,0,0,0c0,0,0,0,0,0c0.1,0.1,0.2,0.2,0.3,0.2c0.1,0,0.1,0.1,0.1,0.1c0.2,0.1,0.4,0.1,0.6,0.1c0.2,0,0.4,0,0.6-0.1c0,0,0,0,0,0
	c0.2-0.1,0.3-0.2,0.5-0.3c0,0,0,0,0,0c0,0,0,0,0,0c0,0,0,0,0,0c5-5.2,10.8-13.5,11.7-18.7C27.4,16.9,28.5,9.4,24.4,4.6z M24.2,17.8
	c-0.7,4.1-5.4,11.1-9.9,16C9.7,28.9,4.8,21.9,4,17.8c-0.2-1.2-1.1-7.3,2.1-11.2c1.8-2.1,4.5-3.2,8.2-3.2c3.4,0,6,1,7.7,3
	C25.3,10.3,24.4,16.6,24.2,17.8z"/>
<path class="st0" d="M14,21c-3.3,0-6-2.7-6-6s2.7-6,6-6s6,2.7,6,6S17.3,21,14,21z M14,11c-2.2,0-4,1.8-4,4s1.8,4,4,4
	c2.2,0,4-1.8,4-4S16.2,11,14,11z"/>
</svg>
